<?xml version="1.0" standalone="no"?><!DOCTYPE svg PUBLIC "-//W3C//DTD SVG 1.1//EN" "http://www.w3.org/Graphics/SVG/1.1/DTD/svg11.dtd"><svg t="1582600234650" class="icon" viewBox="0 0 1024 1024" version="1.1" xmlns="http://www.w3.org/2000/svg" p-id="4509" width="32" height="32" xmlns:xlink="http://www.w3.org/1999/xlink"><defs><style type="text/css"></style></defs><path d="M512 736.938667c-78.336 0-146.193067-46.1824-168.925867-114.926934l-10.752-32.426666 64.853334-21.4016 10.683733 32.426666c13.277867 40.106667 56.1152 68.096 104.1408 68.096 48.0256 0 90.862933-27.989333 104.1408-68.096l10.683733-32.426666 64.853334 21.435733-10.752 32.392533c-22.7328 68.744533-90.589867 114.961067-168.925867 114.961067zM512 136.533333c207.36 0 375.466667 168.106667 375.466667 375.466667s-168.106667 375.466667-375.466667 375.466667S136.533333 719.36 136.533333 512 304.64 136.533333 512 136.533333z m0 68.266667c-169.403733 0-307.2 137.796267-307.2 307.2s137.796267 307.2 307.2 307.2 307.2-137.796267 307.2-307.2-137.796267-307.2-307.2-307.2z" p-id="4510" fill="#d81e06"></path></svg>