<?xml version="1.0" standalone="no"?><!DOCTYPE svg PUBLIC "-//W3C//DTD SVG 1.1//EN" "http://www.w3.org/Graphics/SVG/1.1/DTD/svg11.dtd"><svg t="1582591912315" class="icon" viewBox="0 0 1024 1024" version="1.1" xmlns="http://www.w3.org/2000/svg" p-id="4041" width="32" height="32" xmlns:xlink="http://www.w3.org/1999/xlink"><defs><style type="text/css"></style></defs><path d="M499.6 510.2h25.7c113.2 0 205.4-92.1 205.4-205.4V159.4c0-47.2-38.4-85.7-85.7-85.7H499.6c-113.2 0-205.4 92.1-205.4 205.4v25.7c0.1 113.2 92.2 205.4 205.4 205.4z m-1-409h154.7c27.6 0 50.1 22.4 50.1 50.1V306c0 97.6-79.4 176.9-176.9 176.9h-27.9c-97.6 0-176.9-79.4-176.9-176.9v-27.9c0-97.6 79.4-176.9 176.9-176.9zM925.4 831.5c0-142.7-185.2-258.8-412.9-258.8S99.6 688.8 99.6 831.5c0 31.5 6.9 56 36.3 74 24.3 18.1 68.3 28.1 144.8 33.3 58.5 5.1 135 7.5 233.9 7.5 106.1 0 185-2.7 243.7-8.4 60.9-4.8 99.4-13.2 123.2-27 37.1-18.4 43.9-44.5 43.9-79.4zM512.5 600.3c211.1 0 382.8 107.2 382.8 239 0 24.4 0 39.3-40.1 53-52.8 18.1-161.1 26.5-340.7 26.5-181.6 0-291.1-8.4-344.6-26.5-40.5-13.7-40.5-28.5-40.5-53 0.3-131.9 172-239 383.1-239z" fill="" p-id="4042"></path></svg>